<?xml version="1.0" encoding="utf-8"?>
<!-- Generator: Adobe Illustrator 17.1.0, SVG Export Plug-In . SVG Version: 6.00 Build 0)  -->
<!DOCTYPE svg PUBLIC "-//W3C//DTD SVG 1.1//EN" "http://www.w3.org/Graphics/SVG/1.1/DTD/svg11.dtd">
<svg version="1.1" id="Layer_1" xmlns="http://www.w3.org/2000/svg" xmlns:xlink="http://www.w3.org/1999/xlink" x="0px" y="0px"
	 viewBox="0 0 16 16" enable-background="new 0 0 16 16" xml:space="preserve">
<g>
	<path fill="#4A90E2" d="M8,2.3l1.6,3.4l0.2,0.5l0.5,0.1l3.6,0.5l-2.6,2.7l-0.3,0.4l0.1,0.5l0.6,3.8l-3.1-1.7L8,12.2l-0.5,0.3
		l-3.1,1.7L5,10.4l0.1-0.5L4.7,9.5L2.1,6.8l3.6-0.5l0.5-0.1l0.2-0.5L8,2.3 M8,0L5.5,5.3L0,6.1l4,4.1L3.1,16L8,13.3l4.9,2.7L12,10.2
		l4-4.1l-5.5-0.8L8,0L8,0z"/>
</g>
</svg>
