<?xml version="1.0" encoding="utf-8"?>
<!-- Generator: Adobe Illustrator 17.1.0, SVG Export Plug-In . SVG Version: 6.00 Build 0)  -->
<!DOCTYPE svg PUBLIC "-//W3C//DTD SVG 1.1//EN" "http://www.w3.org/Graphics/SVG/1.1/DTD/svg11.dtd">
<svg version="1.1" id="Layer_1" xmlns="http://www.w3.org/2000/svg" xmlns:xlink="http://www.w3.org/1999/xlink" x="0px" y="0px"
	 viewBox="0 0 12 12" enable-background="new 0 0 12 12" xml:space="preserve">
<g>
	<path fill="#FFFFFF" d="M6,11c-2.8,0-5-2.2-5-5s2.2-5,5-5s5,2.2,5,5S8.8,11,6,11z"/>
	<path fill="#6A7B86" d="M6,2c2.2,0,4,1.8,4,4s-1.8,4-4,4S2,8.2,2,6S3.8,2,6,2 M6,0C2.7,0,0,2.7,0,6s2.7,6,6,6s6-2.7,6-6S9.3,0,6,0
		L6,0z"/>
</g>
</svg>
