<?xml version='1.0' encoding='UTF-8'?>
<svg version="1.1" id="Layer_1_copy" xmlns="http://www.w3.org/2000/svg" xmlns:xlink="http://www.w3.org/1999/xlink" x="0px" y="0px" viewBox="0 0 16 16" enable-background="new 0 0 16 16" xml:space="preserve">
<path fill="#4A90E2" d="M14,8c0-0.8,0.4-1.6,1-1.7c-0.2-0.8-0.4-1.5-0.9-2.1c-0.4,0.3-1.3,0.2-1.9-0.5c-0.6-0.6-0.8-1.4-0.4-1.9  C11.2,1.5,10.4,1.2,9.7,1C9.6,1.6,8.9,2,8.1,2S6.5,1.6,6.4,1C5.7,1.2,5,1.5,4.3,1.9c0.3,0.4,0.2,1.3-0.5,1.9c-0.7,0.5-1.5,0.8-2,0.5  C1.5,4.8,1.2,5.6,1,6.3C1.5,6.4,2,7.2,2,8S1.5,9.6,1,9.6c0.2,0.8,0.5,1.4,0.9,2.1c0.4-0.4,1.3-0.1,1.9,0.4c0.6,0.6,0.8,1.4,0.4,1.9  c0.7,0.4,1.3,0.7,2.1,0.9c0.1-0.6,0.8-1,1.7-1s1.6,0.4,1.6,1c0.8-0.2,1.4-0.4,2.1-0.9c-0.4-0.4-0.1-1.3,0.4-1.9  c0.6-0.6,1.4-0.8,1.9-0.4c0.4-0.6,0.7-1.4,0.9-2.1C14.4,9.6,14,8.9,14,8z M8,11.9c-2.2,0-3.9-1.8-3.9-3.9S5.8,4.1,8,4.1  s3.9,1.8,3.9,3.9S10.1,11.9,8,11.9z"></path>
</svg>