<?xml version="1.0" encoding="utf-8"?>
<!-- Generator: Adobe Illustrator 17.1.0, SVG Export Plug-In . SVG Version: 6.00 Build 0)  -->
<!DOCTYPE svg PUBLIC "-//W3C//DTD SVG 1.1//EN" "http://www.w3.org/Graphics/SVG/1.1/DTD/svg11.dtd">
<svg version="1.1" id="Layer_1" xmlns="http://www.w3.org/2000/svg" xmlns:xlink="http://www.w3.org/1999/xlink" x="0px" y="0px"
	 viewBox="0 0 22 22" enable-background="new 0 0 22 22" xml:space="preserve">
<linearGradient id="SVGID_1_" gradientUnits="userSpaceOnUse" x1="11" y1="-0.1005" x2="11" y2="22" gradientTransform="matrix(1 0 0 -1 0 22)">
	<stop  offset="0" style="stop-color:#666666"/>
	<stop  offset="1" style="stop-color:#A2A2A2"/>
</linearGradient>
<path fill="url(#SVGID_1_)" d="M20.4,11.1c0-1.3,0.7-2.5,1.6-2.6c-0.3-1.2-0.7-2.3-1.3-3.3c-0.7,0.6-2,0.2-3-0.7
	c-0.9-0.9-1.3-2.2-0.7-3c-1-0.6-2.1-1.1-3.3-1.3c-0.2,0.9-1.3,1.6-2.6,1.6S8.6,0.9,8.5,0C7.3,0.3,6.2,0.7,5.2,1.3
	c0.5,0.7,0.2,2.1-0.7,3C3.4,5.2,2.1,5.5,1.3,5.1C0.7,6,0.3,7.2,0,8.4c0.9,0.1,1.6,1.3,1.6,2.6S0.9,13.6,0,13.7
	C0.3,14.9,0.7,16,1.3,17c0.7-0.6,2-0.2,3,0.7c1,0.9,1.3,2.2,0.7,3c1,0.6,2.1,1.1,3.3,1.3c0.2-0.9,1.3-1.6,2.6-1.6s2.4,0.7,2.6,1.6
	c1.2-0.3,2.3-0.7,3.3-1.3c-0.5-0.7-0.2-2.1,0.7-3c0.9-0.9,2.2-1.3,3-0.7c0.6-1,1.1-2.1,1.3-3.3C21.1,13.6,20.4,12.4,20.4,11.1z
	 M11,17.3c-3.4,0-6.1-2.8-6.1-6.2S7.6,4.8,11,4.8s6.1,2.8,6.1,6.2S14.4,17.3,11,17.3z"/>
</svg>
