<?xml version="1.0" encoding="utf-8"?>
<!-- Generator: Adobe Illustrator 18.0.0, SVG Export Plug-In . SVG Version: 6.00 Build 0)  -->
<!DOCTYPE svg PUBLIC "-//W3C//DTD SVG 1.1//EN" "http://www.w3.org/Graphics/SVG/1.1/DTD/svg11.dtd">
<svg version="1.1" xmlns="http://www.w3.org/2000/svg" xmlns:xlink="http://www.w3.org/1999/xlink" x="0px" y="0px"
	 viewBox="0 0 65 65" enable-background="new 0 0 65 65" xml:space="preserve">
<g id="Layer_1" display="none">
</g>
<g id="Top_Interests">
</g>
<g id="Recent_Browsing">
	<g>
		<defs>
			<rect id="SVGID_1_" x="-907" y="-96.6" width="696" height="426"/>
		</defs>
		<clipPath id="SVGID_2_">
			<use xlink:href="#SVGID_1_"  overflow="visible"/>
		</clipPath>
		<g clip-path="url(#SVGID_2_)">
			<defs>
				<rect id="SVGID_3_" x="-907" y="-258.6" width="1280" height="1244"/>
			</defs>
			<clipPath id="SVGID_4_">
				<use xlink:href="#SVGID_3_"  overflow="visible"/>
			</clipPath>
		</g>
	</g>
	<path fill="#3FB58E" d="M64.3,32c0.3,17.9-13.6,32.7-31,33s-31.7-14-32-32s13.6-32.7,31-33S64,14.1,64.3,32z"/>
	<path fill="#FBCB41" d="M24.1,24.4L9.8,45.6c-0.4,0.5-1.1,0.7-1.6,0.3l-1.6-1.1c-0.5-0.4-0.6-1.1-0.3-1.6l14.3-21.2
		c0.4-0.5,1.1-0.7,1.6-0.3l1.6,1.1C24.3,23.1,24.5,23.9,24.1,24.4z"/>
	<path fill="#FBCB41" d="M58.4,19.1L44.7,40.8c-0.3,0.5-1,0.7-1.6,0.3l-1.6-1.1c-0.5-0.3-0.7-1.1-0.3-1.6l13.7-21.7
		c0.3-0.5,1-0.7,1.6-0.3l1.6,1.1C58.6,17.9,58.7,18.6,58.4,19.1z"/>
	<path fill="#FBCB41" d="M41.1,42.5L22.4,25.8c-0.6-0.5-0.6-1.4-0.1-1.9l1-1.2c0.5-0.6,1.3-0.6,1.9-0.1l18.7,16.7
		c0.6,0.5,0.6,1.4,0.1,1.9l-1,1.2C42.5,42.9,41.7,43,41.1,42.5z"/>
	<ellipse fill="#FBCB41" cx="7.6" cy="45.2" rx="7.6" ry="7.9"/>
	<path fill="#E8A822" d="M13.2,45.1c0,3.2-2.4,5.8-5.5,5.9S2.1,48.5,2,45.3c0-3.2,2.4-5.8,5.5-5.9C10.6,39.4,13.2,41.9,13.2,45.1z"
		/>
	<ellipse fill="#FBCB41" cx="22.8" cy="22.2" rx="7.6" ry="7.9"/>
	<path fill="#E8A822" d="M28.4,22.2c0,3.2-2.4,5.8-5.5,5.9c-3.1,0-5.6-2.5-5.7-5.7c0-3.2,2.4-5.8,5.5-5.9
		C25.8,16.4,28.3,19,28.4,22.2z"/>
	<ellipse fill="#FBCB41" cx="41.3" cy="39.8" rx="7.6" ry="7.9"/>
	<path fill="#E8A822" d="M46.9,39.7c0,3.2-2.4,5.8-5.5,5.9c-3.1,0-5.6-2.5-5.7-5.7c0-3.2,2.4-5.8,5.5-5.9
		C44.3,34,46.8,36.6,46.9,39.7z"/>
	<ellipse fill="#FBCB41" cx="57.4" cy="16.4" rx="7.6" ry="7.9"/>
	<path fill="#E8A822" d="M63,16.3c0,3.2-2.4,5.8-5.5,5.9c-3.1,0-5.6-2.5-5.7-5.7s2.4-5.8,5.5-5.9C60.4,10.6,62.9,13.1,63,16.3z"/>
</g>
</svg>
