<?xml version="1.0" encoding="utf-8"?>
<!-- Generator: Adobe Illustrator 18.0.0, SVG Export Plug-In . SVG Version: 6.00 Build 0)  -->
<!DOCTYPE svg PUBLIC "-//W3C//DTD SVG 1.1//EN" "http://www.w3.org/Graphics/SVG/1.1/DTD/svg11.dtd">
<svg version="1.1" xmlns="http://www.w3.org/2000/svg" xmlns:xlink="http://www.w3.org/1999/xlink" x="0px" y="0px"
	 viewBox="0 0 65 65" enable-background="new 0 0 65 65" xml:space="preserve">
<g id="Layer_1" display="none">
</g>
<g id="Top_Interests">
	<circle fill="#C1C1C1" cx="32.5" cy="32.5" r="32.5"/>
	<g>
		<circle fill="#424F5A" cx="32.7" cy="32.2" r="24.9"/>
		
			<ellipse transform="matrix(0.9999 -1.539281e-02 1.539281e-02 0.9999 -0.4931 0.5063)" fill="#FFFFFF" cx="32.6" cy="32.3" rx="21.3" ry="21.4"/>
		<circle fill="#424F5A" cx="32.7" cy="32.2" r="16"/>
		<circle fill="#FFFFFF" cx="32.7" cy="32.2" r="13"/>
		<circle fill="#D0021B" cx="32.6" cy="32.2" r="6.4"/>
	</g>
	<path fill="#C1C1C1" d="M56.7,52L56.7,52c-1.1,1.4-3.2,1.7-4.6,0.5L31.3,36c-1.4-1.1-1.7-3.2-0.5-4.6l0,0c1.1-1.4,3.2-1.7,4.6-0.5
		l20.7,16.5C57.6,48.5,57.8,50.6,56.7,52z"/>
	<path fill="#424F5A" d="M52.7,54.1l5.9,5l-0.4-5.8l5.8-0.6l-6.2-5C57.7,47.6,52.2,48.6,52.7,54.1z"/>
	<path fill="#424F5A" d="M57.3,52.6L57.3,52.6c-0.8,1-2.2,1.1-3.2,0.4L32.1,35.5c-1-0.8-1.1-2.2-0.4-3.2l0,0c0.8-1,2.2-1.1,3.2-0.4
		l21.9,17.5C57.9,50.2,58,51.6,57.3,52.6z"/>
</g>
<g id="Recent_Browsing">
	<g>
		<defs>
			<rect id="SVGID_1_" x="-907" y="-172.6" width="696" height="426"/>
		</defs>
		<clipPath id="SVGID_2_">
			<use xlink:href="#SVGID_1_"  overflow="visible"/>
		</clipPath>
		<g clip-path="url(#SVGID_2_)">
			<defs>
				<rect id="SVGID_3_" x="-907" y="-334.6" width="1280" height="1244"/>
			</defs>
			<clipPath id="SVGID_4_">
				<use xlink:href="#SVGID_3_"  overflow="visible"/>
			</clipPath>
		</g>
	</g>
</g>
</svg>
