<?xml version="1.0" encoding="utf-8"?>
<!-- Generator: Adobe Illustrator 17.1.0, SVG Export Plug-In . SVG Version: 6.00 Build 0)  -->
<!DOCTYPE svg PUBLIC "-//W3C//DTD SVG 1.1//EN" "http://www.w3.org/Graphics/SVG/1.1/DTD/svg11.dtd">
<svg version="1.1" id="Layer_1" xmlns="http://www.w3.org/2000/svg" xmlns:xlink="http://www.w3.org/1999/xlink" x="0px" y="0px"
	 viewBox="0 0 13 13" enable-background="new 0 0 13 13" xml:space="preserve">
<g>
	<path fill="#FFFFFF" d="M6.5,12.5c-3.3,0-6-2.7-6-6s2.7-6,6-6s6,2.7,6,6S9.8,12.5,6.5,12.5z"/>
	<path fill="#4A90E2" d="M6.5,1c3,0,5.5,2.5,5.5,5.5S9.5,12,6.5,12S1,9.5,1,6.5S3.5,1,6.5,1 M6.5,0C2.9,0,0,2.9,0,6.5S2.9,13,6.5,13
		S13,10.1,13,6.5S10.1,0,6.5,0L6.5,0z"/>
</g>
<g>
	<path fill="#4A90E2" d="M7.8,2.9C8.2,3,8.4,3.3,8.6,3.5c0.2,0.3,0.3,0.6,0.3,0.9c0,0.3-0.1,0.5-0.2,0.8S8.5,5.6,8.3,5.7
		C8.2,5.8,8,6,7.8,6.1C7.5,6.3,7.2,6.5,7.1,6.7C6.9,6.8,6.9,7.1,6.9,7.4v0.4H5.6V7.3c0-0.3,0.1-0.6,0.2-0.8C5.8,6.2,5.9,6,6.1,5.9
		c0.1-0.1,0.3-0.3,0.6-0.4C6.9,5.3,7.1,5.1,7.2,5c0.1-0.1,0.2-0.3,0.2-0.5c0-0.2-0.1-0.4-0.2-0.6S6.7,3.8,6.5,3.8
		c-0.5,0-1,0.2-1.4,0.7L4.1,3.8C4.8,3,5.6,2.6,6.6,2.6C7.1,2.6,7.5,2.7,7.8,2.9z M6.9,9.1C7,9.2,7.1,9.4,7.1,9.7
		c0,0.2-0.1,0.5-0.3,0.6c-0.2,0.2-0.4,0.3-0.6,0.3c-0.2,0-0.4-0.1-0.6-0.3c-0.2-0.2-0.3-0.4-0.3-0.6c0-0.2,0.1-0.5,0.3-0.6
		C5.8,8.9,6,8.8,6.2,8.8C6.5,8.8,6.7,8.9,6.9,9.1z"/>
</g>
</svg>
