<?xml version="1.0" encoding="utf-8"?>
<!-- Generator: Adobe Illustrator 17.1.0, SVG Export Plug-In . SVG Version: 6.00 Build 0)  -->
<!DOCTYPE svg PUBLIC "-//W3C//DTD SVG 1.1//EN" "http://www.w3.org/Graphics/SVG/1.1/DTD/svg11.dtd">
<svg version="1.1" id="Layer_1" xmlns="http://www.w3.org/2000/svg" xmlns:xlink="http://www.w3.org/1999/xlink" x="0px" y="0px"
	 viewBox="0 0 18 28" enable-background="new 0 0 18 28" xml:space="preserve">
<linearGradient id="SVGID_1_" gradientUnits="userSpaceOnUse" x1="3.3333" y1="-123.6369" x2="3.3333" y2="137.3333" gradientTransform="matrix(0.1071 0 0 -0.1071 8.6429 14.7143)">
	<stop  offset="0" style="stop-color:#F76B1C"/>
	<stop  offset="1" style="stop-color:#FAD961"/>
</linearGradient>
<path fill="url(#SVGID_1_)" d="M13.5,0C3.3,4,7,16,7,16s-1.9-0.7-2.5-2.6C3.7,11.2,4,9.2,4,9.2s-4,2.4-4,8.5c0,5.8,3.8,9.9,7.6,10.3
	c0,0,1.5-1.3,2.4-2.7c2.3-3.9,2.3-8.9,2.3-8.9s1.2,1.9,1.2,6.3c0,2.2-0.4,3.8-0.7,4.8c3-1.3,5.2-4.4,5.2-9.1
	C18,12.3,11.1,9.9,13.5,0z"/>
</svg>
