<?xml version="1.0" encoding="utf-8"?>
<!-- Generator: Adobe Illustrator 17.1.0, SVG Export Plug-In . SVG Version: 6.00 Build 0)  -->
<!DOCTYPE svg PUBLIC "-//W3C//DTD SVG 1.1//EN" "http://www.w3.org/Graphics/SVG/1.1/DTD/svg11.dtd">
<svg version="1.1" id="Layer_1" xmlns="http://www.w3.org/2000/svg" xmlns:xlink="http://www.w3.org/1999/xlink" x="0px" y="0px"
	 viewBox="0 0 9 16" enable-background="new 0 0 9 16" xml:space="preserve">
<path fill="#F5A623" d="M6.8,1C1.6,3,3.5,9,3.5,9s-1-0.4-1.2-1.3C1.9,6.6,2,5.6,2,5.6S0,6.8,0,9.9c0,2.9,1.9,4.9,3.8,5.1
	c0,0,0.8-0.6,1.2-1.4c1.2-1.9,1.2-4.4,1.2-4.4s0.6,0.9,0.6,3.2c0,1.1-0.2,1.9-0.3,2.4C7.9,14.1,9,12.6,9,10.2C9,7.2,5.6,5.9,6.8,1z"
	/>
</svg>
